<svg width="16" height="19" viewBox="0 0 16 19" fill="none" xmlns="http://www.w3.org/2000/svg">
<g clip-path="url(#clip0_2453_4520)">
<path d="M7.73999 4.11058C8.52002 4.11058 9.4978 3.56703 10.0801 2.8423C10.6074 2.18551 10.9919 1.26828 10.9919 0.35104C10.9919 0.226477 10.981 0.101915 10.959 0C10.0911 0.0339717 9.04736 0.600166 8.42114 1.35887C7.92676 1.93639 7.47632 2.8423 7.47632 3.77086C7.47632 3.90675 7.49829 4.04263 7.50928 4.08793C7.56421 4.09925 7.6521 4.11058 7.73999 4.11058ZM4.99341 17.8125C6.05908 17.8125 6.53149 17.0764 7.86084 17.0764C9.21216 17.0764 9.50879 17.7899 10.6953 17.7899C11.8599 17.7899 12.6399 16.6801 13.376 15.593C14.2 14.3474 14.5405 13.1244 14.5625 13.0678C14.4856 13.0451 12.2554 12.1053 12.2554 9.46678C12.2554 7.17935 14.0132 6.14888 14.1121 6.06961C12.9475 4.34838 11.1787 4.30308 10.6953 4.30308C9.38794 4.30308 8.32227 5.1184 7.6521 5.1184C6.927 5.1184 5.97119 4.34838 4.8396 4.34838C2.68628 4.34838 0.5 6.18285 0.5 9.64796C0.5 11.7995 1.31299 14.0756 2.31274 15.5477C3.16968 16.7933 3.91675 17.8125 4.99341 17.8125Z" fill="white"/>
</g>
<defs>
<clipPath id="clip0_2453_4520">
<rect width="15" height="18.75" fill="white" transform="translate(0.5)"/>
</clipPath>
</defs>
</svg>
