<svg width="42" height="43" viewBox="0 0 42 43" fill="none" xmlns="http://www.w3.org/2000/svg">
<rect y="0.103516" width="42" height="42" rx="8" fill="#F3F4F6"/>
<path d="M31.8524 25.4494V18.566L21.2671 23.6702C20.8726 23.8646 20.4562 23.9619 20.0179 23.9619C19.5796 23.9619 19.1632 23.8646 18.7687 23.6702L7.65748 18.3035C7.41641 18.1869 7.24634 18.041 7.14728 17.866C7.04823 17.691 6.99913 17.4966 7.00001 17.2827C7.00089 17.0688 7.05042 16.8744 7.1486 16.6994C7.24678 16.5244 7.41641 16.3785 7.65748 16.2619L18.7687 10.8952C18.966 10.798 19.1689 10.7249 19.3775 10.6759C19.5862 10.6269 19.7996 10.6028 20.0179 10.6035C20.2362 10.6043 20.4501 10.6288 20.6596 10.677C20.8691 10.7253 21.0716 10.798 21.2671 10.8952L33.7919 16.9619C34.011 17.0591 34.1811 17.2003 34.3021 17.3854C34.4231 17.5705 34.4831 17.7696 34.4822 17.9827V25.4494C34.4822 25.7799 34.356 26.0572 34.1035 26.2812C33.8511 26.5052 33.539 26.6168 33.1673 26.616C32.7956 26.6153 32.4835 26.5033 32.2311 26.28C31.9786 26.0568 31.8524 25.7799 31.8524 25.4494ZM18.7687 30.6702L12.194 27.5202C11.7557 27.3063 11.416 27.0146 11.1749 26.6452C10.9339 26.2758 10.8133 25.8771 10.8133 25.4494V21.016L18.7687 24.8369C19.1632 25.0313 19.5796 25.1285 20.0179 25.1285C20.4562 25.1285 20.8726 25.0313 21.2671 24.8369L29.2225 21.016V25.4494C29.2225 25.8771 29.1019 26.2758 28.8609 26.6452C28.6198 27.0146 28.2801 27.3063 27.8418 27.5202L21.2671 30.6702C21.0699 30.7674 20.8674 30.8405 20.6596 30.8895C20.4518 30.9385 20.2379 30.9626 20.0179 30.9619C19.7979 30.9611 19.584 30.937 19.3762 30.8895C19.1685 30.8421 18.966 30.769 18.7687 30.6702Z" fill="#31E195"/>
</svg>
