<svg width="42" height="42" viewBox="0 0 42 42" fill="none" xmlns="http://www.w3.org/2000/svg">
<rect width="42" height="42" rx="8" fill="#1CBFDC"/>
<path fill-rule="evenodd" clip-rule="evenodd" d="M18.3502 12.6414C16.6903 13.1673 15.2245 14.1755 14.1397 15.5375C13.0548 16.8995 12.4001 18.5537 12.2589 20.2892H16.5056C16.5369 19.2503 16.6335 18.2266 16.7947 17.2559C16.9909 16.0672 17.2829 14.9714 17.6573 14.033C17.8468 13.5496 18.0787 13.084 18.3502 12.6414ZM20.9987 10.8101C19.6605 10.8101 18.3354 11.0736 17.0991 11.5857C15.8628 12.0978 14.7394 12.8484 13.7932 13.7947C12.847 14.7409 12.0964 15.8643 11.5843 17.1006C11.0722 18.3369 10.8086 19.662 10.8086 21.0002C10.8086 22.3383 11.0722 23.6634 11.5843 24.8997C12.0964 26.1361 12.847 27.2594 13.7932 28.2057C14.7394 29.1519 15.8628 29.9025 17.0991 30.4146C18.3354 30.9267 19.6605 31.1903 20.9987 31.1903C23.7013 31.1903 26.2932 30.1167 28.2042 28.2057C30.1152 26.2946 31.1888 23.7027 31.1888 21.0002C31.1888 18.2976 30.1152 15.7057 28.2042 13.7947C26.2932 11.8837 23.7013 10.8101 20.9987 10.8101ZM20.9987 12.2319C20.7513 12.2319 20.4309 12.3514 20.0593 12.7362C19.6839 13.1249 19.3095 13.7325 18.9777 14.561C18.6488 15.3847 18.3806 16.3781 18.1967 17.4891C18.0497 18.3801 17.9597 19.3252 17.9293 20.2892H24.0681C24.0407 19.351 23.9514 18.4156 23.8007 17.4891C23.6168 16.3781 23.3486 15.3847 23.0197 14.561C22.6879 13.7325 22.3135 13.1249 21.939 12.7362C21.5665 12.3514 21.2471 12.2319 20.9987 12.2319ZM25.4918 20.2892C25.4633 19.2728 25.3668 18.2594 25.2027 17.2559C25.0065 16.0672 24.7145 14.9714 24.3401 14.033C24.1503 13.5496 23.9181 13.0839 23.6462 12.6414C24.9865 13.0654 26.2051 13.8057 27.199 14.7998C28.6694 16.2707 29.5692 18.2163 29.7375 20.2892H25.4918ZM24.0681 21.7111H17.9293C17.9587 22.6751 18.0497 23.6202 18.1967 24.5112C18.3806 25.6222 18.6488 26.6156 18.9777 27.4394C19.3095 28.2678 19.6839 28.8755 20.0584 29.2641C20.4309 29.649 20.7503 29.7684 20.9987 29.7684C21.2461 29.7684 21.5665 29.649 21.9381 29.2641C22.3135 28.8755 22.6879 28.2678 23.0197 27.4394C23.3486 26.6156 23.6168 25.6222 23.8007 24.5112C23.9477 23.6202 24.0377 22.6751 24.0681 21.7111ZM23.6472 29.3589C23.9031 28.9475 24.1354 28.4783 24.3392 27.9674C24.7145 27.0289 25.0065 25.9331 25.2027 24.7444C25.3664 23.7409 25.4627 22.7275 25.4909 21.7111H29.7375C29.5963 23.4466 28.9416 25.1008 27.8568 26.4628C26.772 27.8248 25.3071 28.833 23.6472 29.3589ZM18.3493 29.3589C18.0781 28.9163 17.8465 28.4507 17.6573 27.9674C17.2819 27.0289 16.99 25.9331 16.7937 24.7444C16.63 23.7409 16.5337 22.7275 16.5056 21.7111H12.2589C12.4 23.4465 13.0546 25.1006 14.1393 26.4626C15.2239 27.8246 16.6895 28.8329 18.3493 29.3589Z" fill="white"/>
</svg>
