<svg width="42" height="42" viewBox="0 0 42 42" fill="none" xmlns="http://www.w3.org/2000/svg">
<rect width="42" height="42" rx="8" fill="#25CDBF"/>
<g clip-path="url(#clip0_2535_1344)">
<path d="M20.9996 20.2756C20.0393 20.2756 19.1184 19.8941 18.4394 19.2151C17.7604 18.5361 17.3789 17.6151 17.3789 16.6549C17.3789 15.6946 17.7604 14.7737 18.4394 14.0947C19.1184 13.4156 20.0393 13.0342 20.9996 13.0342C21.9599 13.0342 22.8808 13.4156 23.5598 14.0947C24.2388 14.7737 24.6203 15.6946 24.6203 16.6549C24.6203 17.6151 24.2388 18.5361 23.5598 19.2151C22.8808 19.8941 21.9599 20.2756 20.9996 20.2756ZM20.9996 14.4825C19.7975 14.4825 18.8272 15.4528 18.8272 16.6549C18.8272 17.8569 19.7975 18.8273 20.9996 18.8273C22.2017 18.8273 23.172 17.8569 23.172 16.6549C23.172 15.4528 22.2017 14.4825 20.9996 14.4825Z" fill="#F9FAFB"/>
<path d="M29.6884 26.0687C29.2829 26.0687 28.9643 25.75 28.9643 25.3445C28.9643 24.939 29.2829 24.6204 29.6884 24.6204C30.094 24.6204 30.4126 24.3018 30.4126 23.8962C30.4126 22.936 30.0311 22.015 29.3521 21.336C28.6731 20.657 27.7522 20.2756 26.7919 20.2756H25.3436C24.9381 20.2756 24.6195 19.9569 24.6195 19.5514C24.6195 19.1459 24.9381 18.8273 25.3436 18.8273C26.5457 18.8273 27.516 17.8569 27.516 16.6549C27.516 15.4528 26.5457 14.4825 25.3436 14.4825C24.9381 14.4825 24.6195 14.1638 24.6195 13.7583C24.6195 13.3528 24.9381 13.0342 25.3436 13.0342C26.3039 13.0342 27.2248 13.4156 27.9038 14.0947C28.5828 14.7737 28.9643 15.6946 28.9643 16.6549C28.9643 17.5528 28.6457 18.3638 28.0953 19.0011C30.2533 19.5804 31.8609 21.55 31.8609 23.8962C31.8609 25.0983 30.8905 26.0687 29.6884 26.0687ZM12.3091 26.0687C11.1071 26.0687 10.1367 25.0983 10.1367 23.8962C10.1367 21.55 11.7298 19.5804 13.9022 19.0011C13.3664 18.3638 13.0333 17.5528 13.0333 16.6549C13.0333 15.6946 13.4147 14.7737 14.0937 14.0947C14.7728 13.4156 15.6937 13.0342 16.654 13.0342C17.0595 13.0342 17.3781 13.3528 17.3781 13.7583C17.3781 14.1638 17.0595 14.4825 16.654 14.4825C15.4519 14.4825 14.4815 15.4528 14.4815 16.6549C14.4815 17.8569 15.4519 18.8273 16.654 18.8273C17.0595 18.8273 17.3781 19.1459 17.3781 19.5514C17.3781 19.9569 17.0595 20.2756 16.654 20.2756H15.2057C14.2454 20.2756 13.3245 20.657 12.6455 21.336C11.9665 22.015 11.585 22.936 11.585 23.8962C11.585 24.3018 11.9036 24.6204 12.3091 24.6204C12.7146 24.6204 13.0333 24.939 13.0333 25.3445C13.0333 25.75 12.7146 26.0687 12.3091 26.0687ZM25.3436 30.4135H16.654C15.4519 30.4135 14.4815 29.4431 14.4815 28.2411V26.7928C14.4815 23.9976 16.7553 21.7238 19.5505 21.7238H22.4471C25.2422 21.7238 27.516 23.9976 27.516 26.7928V28.2411C27.516 29.4431 26.5457 30.4135 25.3436 30.4135ZM19.5505 23.1721C18.5902 23.1721 17.6693 23.5536 16.9903 24.2326C16.3113 24.9116 15.9298 25.8325 15.9298 26.7928V28.2411C15.9298 28.6466 16.2484 28.9652 16.654 28.9652H25.3436C25.7491 28.9652 26.0678 28.6466 26.0678 28.2411V26.7928C26.0678 25.8325 25.6863 24.9116 25.0073 24.2326C24.3283 23.5536 23.4073 23.1721 22.4471 23.1721H19.5505Z" fill="#F9FAFB"/>
</g>
<defs>
<clipPath id="clip0_2535_1344">
<rect width="21.7241" height="23.1724" fill="white" transform="translate(10.1367 10.1377)"/>
</clipPath>
</defs>
</svg>
