<svg width="13" height="13" viewBox="0 0 13 13" fill="none" xmlns="http://www.w3.org/2000/svg">
<path d="M6.50016 3.38538C6.58129 3.38539 6.66056 3.40971 6.72775 3.45518C6.79494 3.50065 6.84698 3.56519 6.87716 3.6405C7.06891 4.12042 7.3067 4.42321 7.54883 4.61442C7.78933 4.80563 8.05366 4.9015 8.32341 4.93617C8.8797 5.00821 9.45062 4.82133 9.80324 4.66588L9.81245 4.66208C9.86283 4.63988 9.91916 4.61496 9.96737 4.59708H9.97008C10.065 4.56082 10.1683 4.55199 10.268 4.57163C10.3396 4.58752 10.4069 4.61869 10.4653 4.663C10.5238 4.70731 10.5719 4.76372 10.6065 4.82838C10.6737 4.95296 10.6661 5.07863 10.6634 5.11979V5.12088C10.6596 5.17179 10.651 5.23138 10.6439 5.28283C10.502 6.27571 10.3579 7.26804 10.2187 8.26092C10.1483 8.75925 9.88341 9.06963 9.38779 9.21317C7.49988 9.74825 5.50044 9.74825 3.61254 9.21317C3.11691 9.06963 2.85149 8.75925 2.78162 8.26092C2.64241 7.26804 2.49833 6.27571 2.35641 5.28283C2.34788 5.22911 2.34138 5.17509 2.33691 5.12088V5.11979C2.32836 5.01925 2.34806 4.91832 2.39379 4.82838C2.4284 4.76372 2.47657 4.70731 2.535 4.663C2.59343 4.61869 2.66074 4.58752 2.73233 4.57163C2.832 4.55182 2.93524 4.56045 3.03024 4.59654L3.03241 4.59763C3.08116 4.61496 3.13749 4.63988 3.18787 4.66208L3.19708 4.66588C3.54916 4.82133 4.12008 5.00821 4.67583 4.93671C4.95939 4.90313 5.22809 4.79157 5.45204 4.61442C5.69308 4.42321 5.93087 4.12042 6.12316 3.6405C6.15334 3.56519 6.20538 3.50065 6.27257 3.45518C6.33976 3.40971 6.41903 3.38539 6.50016 3.38538Z" fill="#FFB34F"/>
</svg>
