<svg width="20" height="36" viewBox="0 0 20 36" fill="none" xmlns="http://www.w3.org/2000/svg">
<path d="M9.75 13.25C10.1642 13.25 10.5 12.9142 10.5 12.5C10.5 12.0858 10.1642 11.75 9.75 11.75C9.33579 11.75 9 12.0858 9 12.5C9 12.9142 9.33579 13.25 9.75 13.25Z" stroke="#D2D5DB" stroke-width="2" stroke-linecap="round" stroke-linejoin="round"/>
<path d="M9.75 18.75C10.1642 18.75 10.5 18.4142 10.5 18C10.5 17.5858 10.1642 17.25 9.75 17.25C9.33579 17.25 9 17.5858 9 18C9 18.4142 9.33579 18.75 9.75 18.75Z" stroke="#D2D5DB" stroke-width="2" stroke-linecap="round" stroke-linejoin="round"/>
<path d="M9.75 24.25C10.1642 24.25 10.5 23.9142 10.5 23.5C10.5 23.0858 10.1642 22.75 9.75 22.75C9.33579 22.75 9 23.0858 9 23.5C9 23.9142 9.33579 24.25 9.75 24.25Z" stroke="#D2D5DB" stroke-width="2" stroke-linecap="round" stroke-linejoin="round"/>
</svg>
