<svg width="24" height="24" viewBox="0 0 24 24" fill="none" xmlns="http://www.w3.org/2000/svg">
<path d="M21.7101 9.28994L17.7101 5.28994C17.6169 5.1967 17.5062 5.12274 17.3844 5.07228C17.2626 5.02182 17.132 4.99585 17.0001 4.99585C16.7338 4.99585 16.4784 5.10164 16.2901 5.28994C16.1018 5.47825 15.996 5.73364 15.996 5.99994C15.996 6.26624 16.1018 6.52164 16.2901 6.70994L18.5901 8.99994H7.00014C6.73492 8.99994 6.48057 9.1053 6.29303 9.29283C6.1055 9.48037 6.00014 9.73472 6.00014 9.99994C6.00014 10.2652 6.1055 10.5195 6.29303 10.707C6.48057 10.8946 6.73492 10.9999 7.00014 10.9999H21.0001C21.1976 10.999 21.3903 10.9396 21.554 10.8292C21.7177 10.7189 21.8451 10.5626 21.9201 10.3799C21.9967 10.1978 22.0176 9.99712 21.9803 9.80313C21.9429 9.60914 21.8489 9.43057 21.7101 9.28994ZM17.0001 12.9999H3.00014C2.80271 13.0009 2.61 13.0603 2.44628 13.1707C2.28256 13.281 2.15516 13.4373 2.08014 13.6199C2.00356 13.8021 1.98264 14.0028 2.02001 14.1968C2.05739 14.3907 2.15138 14.5693 2.29014 14.7099L6.29014 18.7099C6.3831 18.8037 6.4937 18.8781 6.61556 18.9288C6.73742 18.9796 6.86813 19.0057 7.00014 19.0057C7.13215 19.0057 7.26286 18.9796 7.38472 18.9288C7.50658 18.8781 7.61718 18.8037 7.71014 18.7099C7.80387 18.617 7.87826 18.5064 7.92903 18.3845C7.9798 18.2627 8.00594 18.132 8.00594 17.9999C8.00594 17.8679 7.9798 17.7372 7.92903 17.6154C7.87826 17.4935 7.80387 17.3829 7.71014 17.2899L5.41014 14.9999H17.0001C17.2654 14.9999 17.5197 14.8946 17.7072 14.707C17.8948 14.5195 18.0001 14.2652 18.0001 13.9999C18.0001 13.7347 17.8948 13.4804 17.7072 13.2928C17.5197 13.1053 17.2654 12.9999 17.0001 12.9999Z" fill="#384050"/>
</svg>
