<svg width="22" height="22" viewBox="0 0 22 22" fill="none" xmlns="http://www.w3.org/2000/svg">
<path d="M11.7627 19.9834C14.6282 19.4095 18.3333 17.3479 18.3333 12.0175C18.3333 7.16744 14.7831 3.9371 12.2302 2.45302C11.6628 2.12302 11 2.5566 11 3.21202V4.88769C11 6.20952 10.4445 8.62219 8.90083 9.62594C8.1125 10.1384 7.26 9.3711 7.16467 8.4361L7.08583 7.66794C6.99417 6.7751 6.08483 6.23335 5.37167 6.77785C4.08925 7.7541 2.75 9.46827 2.75 12.0166C2.75 18.535 7.59825 20.1658 10.0219 20.1658C10.1637 20.1658 10.3116 20.1612 10.4656 20.152C9.26842 20.0503 7.33333 19.3078 7.33333 16.9061C7.33333 15.0269 8.70375 13.7574 9.74508 13.1386C10.0256 12.9736 10.3528 13.189 10.3528 13.5144V14.0553C10.3528 14.4678 10.5132 15.114 10.8937 15.5559C11.3245 16.0564 11.9561 15.532 12.0065 14.8739C12.023 14.6667 12.232 14.5347 12.4117 14.6392C12.9993 14.9829 13.75 15.7163 13.75 16.9061C13.75 18.7834 12.7151 19.6469 11.7627 19.9834Z" fill="#E66B6F"/>
</svg>
