<svg width="12" height="12" viewBox="0 0 12 12" fill="none" xmlns="http://www.w3.org/2000/svg">
<path d="M5.99984 1.33329C4.76216 1.33329 3.57518 1.82496 2.70001 2.70013C1.82484 3.5753 1.33317 4.76228 1.33317 5.99996C1.33317 7.23764 1.82484 8.42462 2.70001 9.29979C3.57518 10.175 4.76216 10.6666 5.99984 10.6666C7.23751 10.6666 8.4245 10.175 9.29967 9.29979C10.1748 8.42462 10.6665 7.23764 10.6665 5.99996C10.6665 4.76228 10.1748 3.5753 9.29967 2.70013C8.4245 1.82496 7.23751 1.33329 5.99984 1.33329ZM0.166504 5.99996C0.166504 2.77821 2.77809 0.166626 5.99984 0.166626C9.22159 0.166626 11.8332 2.77821 11.8332 5.99996C11.8332 9.22171 9.22159 11.8333 5.99984 11.8333C2.77809 11.8333 0.166504 9.22171 0.166504 5.99996Z" fill="#9DA2AF"/>
<path d="M6 4.83333C6.15471 4.83333 6.30308 4.89479 6.41248 5.00419C6.52188 5.11358 6.58333 5.26196 6.58333 5.41667V8.91667C6.58333 9.07138 6.52188 9.21975 6.41248 9.32915C6.30308 9.43854 6.15471 9.5 6 9.5C5.84529 9.5 5.69692 9.43854 5.58752 9.32915C5.47812 9.21975 5.41667 9.07138 5.41667 8.91667V5.41667C5.41667 5.26196 5.47812 5.11358 5.58752 5.00419C5.69692 4.89479 5.84529 4.83333 6 4.83333ZM6.875 3.375C6.875 3.60706 6.78281 3.82962 6.61872 3.99372C6.45462 4.15781 6.23206 4.25 6 4.25C5.76794 4.25 5.54538 4.15781 5.38128 3.99372C5.21719 3.82962 5.125 3.60706 5.125 3.375C5.125 3.14294 5.21719 2.92038 5.38128 2.75628C5.54538 2.59219 5.76794 2.5 6 2.5C6.23206 2.5 6.45462 2.59219 6.61872 2.75628C6.78281 2.92038 6.875 3.14294 6.875 3.375Z" fill="#9DA2AF"/>
</svg>
