<svg width="22" height="22" viewBox="0 0 22 22" fill="none" xmlns="http://www.w3.org/2000/svg">
<g clip-path="url(#clip0_1345_10420)">
<path d="M14.2077 21.0827C12.6188 21.0827 11.2172 20.6091 10.0029 19.6618C8.78866 18.7146 7.9826 17.5077 7.58477 16.041C8.27227 16.0716 8.95213 16.0028 9.62435 15.8348C10.2966 15.6667 10.9382 15.4299 11.5493 15.1244H15.3077C15.323 14.9563 15.3346 14.7922 15.3425 14.6321C15.3505 14.472 15.3541 14.3076 15.3535 14.1389C15.3535 14.0014 15.3499 13.8603 15.3425 13.7154C15.3352 13.5706 15.3236 13.4291 15.3077 13.291H13.9556C14.2 13.016 14.4255 12.7257 14.6321 12.4202C14.8387 12.1146 15.0257 11.7938 15.1931 11.4577H18.4244C18.1188 10.9994 17.7521 10.5985 17.3244 10.255C16.8966 9.91157 16.4153 9.64788 15.8806 9.46393C15.957 9.15838 16.0068 8.84518 16.03 8.52435C16.0532 8.20352 16.0569 7.89032 16.041 7.58477C17.5077 7.98199 18.7146 8.78804 19.6619 10.0029C20.6091 11.2178 21.0827 12.6194 21.0827 14.2077C21.0827 16.1174 20.4144 17.7408 19.0779 19.0779C17.7414 20.415 16.118 21.0833 14.2077 21.0827ZM12.0306 18.7452C11.9237 18.4396 11.8283 18.1417 11.7446 17.8514C11.6609 17.5612 11.5882 17.2632 11.5264 16.9577H9.99102C10.2507 17.3396 10.5523 17.6834 10.8958 17.9889C11.2392 18.2945 11.6175 18.5466 12.0306 18.7452ZM14.2077 19.066C14.391 18.7299 14.5478 18.3862 14.6779 18.0348C14.8081 17.6834 14.9187 17.3244 15.0098 16.9577H13.4056C13.4973 17.3244 13.6118 17.6834 13.7493 18.0348C13.8869 18.3862 14.0396 18.7299 14.2077 19.066ZM16.3848 18.7452C16.7973 18.5466 17.1755 18.2945 17.5196 17.9889C17.8637 17.6834 18.1652 17.3396 18.4244 16.9577H16.8889C16.8125 17.2632 16.7362 17.5612 16.6598 17.8514C16.5834 18.1417 16.4917 18.4396 16.3848 18.7452ZM17.141 15.1244H19.1577C19.1882 14.9716 19.2112 14.8225 19.2264 14.677C19.2417 14.5316 19.2493 14.3751 19.2494 14.2077C19.2494 14.0402 19.2417 13.8835 19.2264 13.7374C19.2112 13.5914 19.1882 13.4426 19.1577 13.291H17.141C17.1563 13.4285 17.1679 13.57 17.1759 13.7154C17.1838 13.8609 17.1875 14.002 17.1868 14.1389C17.1868 14.307 17.1832 14.4714 17.1759 14.6321C17.1685 14.7928 17.1569 14.9569 17.141 15.1244ZM7.79102 14.666C5.88129 14.666 4.25788 13.9978 2.92077 12.6613C1.58365 11.3248 0.915405 9.70135 0.916016 7.79102C0.916627 5.88068 1.58518 4.25757 2.92168 2.92168C4.25818 1.5858 5.88129 0.91724 7.79102 0.916017C9.70074 0.914795 11.3242 1.58335 12.6613 2.92168C13.9984 4.26002 14.6666 5.88313 14.666 7.79102C14.6654 9.69891 13.9972 11.3223 12.6613 12.6613C11.3254 14.0002 9.70196 14.6685 7.79102 14.666ZM7.79102 12.8327C9.18129 12.8327 10.3693 12.3401 11.355 11.355C12.3407 10.3699 12.8333 9.18191 12.8327 7.79102C12.8321 6.40013 12.3395 5.21243 11.355 4.22793C10.3705 3.24343 9.18252 2.75057 7.79102 2.74935C6.39952 2.74813 5.21182 3.24099 4.22793 4.22793C3.24404 5.21488 2.75118 6.40257 2.74935 7.79102C2.74752 9.17946 3.24038 10.3675 4.22793 11.355C5.21549 12.3426 6.40318 12.8351 7.79102 12.8327ZM5.49935 7.33268C5.75907 7.33268 5.97693 7.24468 6.15293 7.06868C6.32893 6.89268 6.41663 6.67513 6.41602 6.41602C6.41541 6.15691 6.32741 5.93935 6.15202 5.76335C5.97663 5.58735 5.75907 5.49935 5.49935 5.49935C5.23963 5.49935 5.02207 5.58735 4.84668 5.76335C4.67129 5.93935 4.58329 6.15691 4.58268 6.41602C4.58207 6.67513 4.67007 6.89299 4.84668 7.0696C5.02329 7.24621 5.24085 7.33391 5.49935 7.33268ZM7.79102 11.366C8.52435 11.366 9.17763 11.1598 9.75085 10.7473C10.3241 10.3348 10.7402 9.80768 10.9993 9.16602H4.58268C4.84241 9.80768 5.25888 10.3348 5.8321 10.7473C6.40532 11.1598 7.05829 11.366 7.79102 11.366ZM10.0827 7.33268C10.3424 7.33268 10.5603 7.24468 10.7363 7.06868C10.9123 6.89268 11 6.67513 10.9993 6.41602C10.9987 6.15691 10.9107 5.93935 10.7353 5.76335C10.56 5.58735 10.3424 5.49935 10.0827 5.49935C9.82296 5.49935 9.60541 5.58735 9.43002 5.76335C9.25463 5.93935 9.16663 6.15691 9.16602 6.41602C9.16541 6.67513 9.25341 6.89299 9.43002 7.0696C9.60663 7.24621 9.82418 7.33391 10.0827 7.33268Z" fill="#1CBFDC"/>
</g>
<defs>
<clipPath id="clip0_1345_10420">
<rect width="22" height="22" fill="white"/>
</clipPath>
</defs>
</svg>
