<svg width="24" height="24" viewBox="0 0 24 24" fill="none" xmlns="http://www.w3.org/2000/svg">
<path d="M20.9996 16.0004V10.1004L12.9496 14.4754C12.6496 14.6421 12.333 14.7254 11.9996 14.7254C11.6663 14.7254 11.3496 14.6421 11.0496 14.4754L2.59962 9.87541C2.41628 9.77541 2.28695 9.65041 2.21162 9.50041C2.13628 9.35041 2.09895 9.18374 2.09962 9.00041C2.10028 8.81707 2.13795 8.65041 2.21262 8.50041C2.28728 8.35041 2.41628 8.22541 2.59962 8.12541L11.0496 3.52541C11.1996 3.44207 11.354 3.37941 11.5126 3.33741C11.6713 3.29541 11.8336 3.27474 11.9996 3.27541C12.1656 3.27607 12.3283 3.29707 12.4876 3.33841C12.647 3.37974 12.801 3.44207 12.9496 3.52541L22.4746 8.72541C22.6413 8.80874 22.7706 8.92974 22.8626 9.08841C22.9546 9.24707 23.0003 9.41774 22.9996 9.60041V16.0004C22.9996 16.2837 22.9036 16.5214 22.7116 16.7134C22.5196 16.9054 22.2823 17.0011 21.9996 17.0004C21.717 16.9997 21.4796 16.9037 21.2876 16.7124C21.0956 16.5211 20.9996 16.2837 20.9996 16.0004ZM11.0496 20.4754L6.04962 17.7754C5.71629 17.5921 5.45795 17.3421 5.27462 17.0254C5.09128 16.7087 4.99962 16.3671 4.99962 16.0004V12.2004L11.0496 15.4754C11.3496 15.6421 11.6663 15.7254 11.9996 15.7254C12.333 15.7254 12.6496 15.6421 12.9496 15.4754L18.9996 12.2004V16.0004C18.9996 16.3671 18.908 16.7087 18.7246 17.0254C18.5413 17.3421 18.283 17.5921 17.9496 17.7754L12.9496 20.4754C12.7996 20.5587 12.6456 20.6214 12.4876 20.6634C12.3296 20.7054 12.167 20.7261 11.9996 20.7254C11.8323 20.7247 11.6696 20.7041 11.5116 20.6634C11.3536 20.6227 11.1996 20.5601 11.0496 20.4754Z" fill="#303030"/>
</svg>
