<svg width="12" height="17" viewBox="0 0 12 17" fill="none" xmlns="http://www.w3.org/2000/svg">
<path fill-rule="evenodd" clip-rule="evenodd" d="M1.83268 4.83258C1.83128 3.81744 2.20053 2.8367 2.87108 2.07455C3.54164 1.31239 4.46736 0.821254 5.47442 0.693364C6.48148 0.565474 7.50058 0.80963 8.34036 1.37998C9.18013 1.95033 9.7828 2.80764 10.0352 3.79091C10.0904 4.00497 10.0584 4.2322 9.94611 4.42263C9.83382 4.61305 9.65048 4.75108 9.43643 4.80633C9.22238 4.86158 8.99515 4.82954 8.80472 4.71726C8.61429 4.60497 8.47627 4.42163 8.42102 4.20758C8.26971 3.61747 7.90815 3.1029 7.40424 2.76056C6.90032 2.41822 6.28875 2.27165 5.6844 2.3484C5.08005 2.42514 4.52452 2.71992 4.12218 3.17735C3.71983 3.63478 3.49835 4.22338 3.49935 4.83258V7.33258H10.4993C11.2327 7.33258 11.8327 7.93258 11.8327 8.66591V14.4992C11.8327 15.5992 10.9327 16.4992 9.83268 16.4992H2.16602C1.06602 16.4992 0.166016 15.5992 0.166016 14.4992V8.66591C0.166016 7.93258 0.766016 7.33258 1.49935 7.33258H1.83268V4.83258ZM5.99935 9.20758C5.66796 9.20724 5.34634 9.31976 5.08746 9.52663C4.82858 9.7335 4.64787 10.0224 4.5751 10.3457C4.50232 10.669 4.54183 11.0074 4.68711 11.3052C4.83239 11.6031 5.07478 11.8426 5.37435 11.9842V13.9992C5.37435 14.165 5.4402 14.324 5.55741 14.4412C5.67462 14.5584 5.83359 14.6242 5.99935 14.6242C6.16511 14.6242 6.32408 14.5584 6.44129 14.4412C6.5585 14.324 6.62435 14.165 6.62435 13.9992V11.9842C6.92392 11.8426 7.16631 11.6031 7.31159 11.3052C7.45687 11.0074 7.49637 10.669 7.4236 10.3457C7.35083 10.0224 7.17012 9.7335 6.91124 9.52663C6.65235 9.31976 6.33073 9.20724 5.99935 9.20758Z" fill="#D2D5DB"/>
</svg>
